
<svg xmlns="http://www.w3.org/2000/svg" viewBox="0 0 224 40" shape-rendering="crispEdges" width="224" height="40">
  
  <g fill="#f7e4c9">
    
    <rect x="4" y="4" width="4" height="28"></rect>
    <rect x="28" y="4" width="4" height="28"></rect>
    <rect x="8" y="4" width="4" height="4"></rect>
    <rect x="24" y="4" width="4" height="4"></rect>
    <rect x="12" y="8" width="4" height="4"></rect>
    <rect x="20" y="8" width="4" height="4"></rect>
    <rect x="16" y="12" width="4" height="4"></rect>

    
    <rect x="44" y="8" width="4" height="24"></rect>
    <rect x="60" y="8" width="4" height="24"></rect>
    <rect x="48" y="4" width="12" height="4"></rect>
    <rect x="48" y="16" width="12" height="4"></rect>

    
    <rect x="72" y="4" width="20" height="4"></rect>
    <rect x="80" y="8" width="4" height="24"></rect>

    
    <rect x="100" y="4" width="4" height="28"></rect>
    <rect x="104" y="4" width="16" height="4"></rect>
    <rect x="104" y="16" width="12" height="4"></rect>
    <rect x="104" y="28" width="16" height="4"></rect>

    
    <rect x="128" y="4" width="4" height="28"></rect>
    <rect x="132" y="4" width="12" height="4"></rect>
    <rect x="144" y="8" width="4" height="8"></rect>
    <rect x="132" y="16" width="12" height="4"></rect>
    <rect x="136" y="20" width="4" height="4"></rect>
    <rect x="140" y="24" width="4" height="4"></rect>
    <rect x="144" y="28" width="4" height="4"></rect>

    
    <rect x="156" y="4" width="4" height="28"></rect>
    <rect x="160" y="4" width="16" height="4"></rect>
    <rect x="160" y="16" width="12" height="4"></rect>
    <rect x="160" y="28" width="16" height="4"></rect>
  </g>

  
  <rect x="184" y="28" width="4" height="4" fill="#b8491f"></rect>
  <rect x="188" y="28" width="4" height="4" fill="#d97a3c"></rect>
</svg>